<?xml version="1.0" standalone="no"?>
<!DOCTYPE svg PUBLIC "-//W3C//DTD SVG 20010904//EN"
 "http://www.w3.org/TR/2001/REC-SVG-20010904/DTD/svg10.dtd">
<svg version="1.0" xmlns="http://www.w3.org/2000/svg"
 width="128.000000pt" height="128.000000pt" viewBox="0 0 128.000000 128.000000"
 preserveAspectRatio="xMidYMid meet">

<g transform="translate(0.000000,128.000000) scale(0.100000,-0.100000)"
fill="#000000" stroke="none">
<path d="M516 1154 c-189 -46 -346 -205 -391 -396 -88 -375 259 -721 634 -633
193 46 350 204 396 397 89 377 -262 723 -639 632z m215 -54 c134 -25 267 -127
328 -251 140 -285 -36 -623 -349 -672 -255 -39 -496 140 -533 398 -46 318 235
584 554 525z"/>
<path d="M617 1014 c-4 -4 -7 -69 -7 -145 0 -129 -1 -138 -20 -144 -23 -7 -50
-53 -50 -85 0 -52 49 -100 101 -100 30 0 77 27 84 50 5 17 17 20 98 22 91 3
92 3 92 28 0 25 -1 25 -91 28 -85 3 -92 4 -104 27 -7 14 -21 27 -31 30 -17 6
-19 21 -21 148 -3 134 -4 142 -23 145 -12 2 -24 0 -28 -4z m53 -349 c26 -32
-13 -81 -47 -59 -35 22 -23 74 17 74 10 0 23 -7 30 -15z"/>
</g>
</svg>
