<?xml version="1.0" encoding="utf-8"?>
<!-- Generator: Adobe Illustrator 26.0.1, SVG Export Plug-In . SVG Version: 6.00 Build 0)  -->
<svg version="1.1" id="Layer_1" xmlns="http://www.w3.org/2000/svg" xmlns:xlink="http://www.w3.org/1999/xlink" x="0px" y="0px"
	 viewBox="0 0 169 13" style="enable-background:new 0 0 169 13;" xml:space="preserve">
<style type="text/css">
	.st0{clip-path:url(#SVGID_00000072281028094434561480000001484553420990598039_);}
	.st1{fill:#2563eb;}
	.st2{fill:#2563eb;}
</style>
<g>
	<defs>
		<rect id="SVGID_1_" width="169" height="13"/>
	</defs>
	<clipPath id="SVGID_00000003092785475126715620000009739124523175912637_">
		<use xlink:href="#SVGID_1_"  style="overflow:visible;"/>
	</clipPath>
	<g style="clip-path:url(#SVGID_00000003092785475126715620000009739124523175912637_);">
		<path class="st1" d="M168.9,12.2c0.1-0.1,0.2-0.5-0.1-0.5l-0.4,0.6L168.9,12.2z"/>
		<path class="st1" d="M167.6,10.7c-0.4,0.3-0.9,0.7-0.8,1.4c0.5-0.6,0.5-0.3,1-1c0.3,0,0.4,0.3,0.3,0.5c0.1-0.1,0.3,0.2,0.6-0.2
			c-0.2-0.5-0.6-0.6-1.1-0.3C167.4,11,167.5,10.9,167.6,10.7z"/>
		<path class="st1" d="M144.1,6.1l0.1,0.1C144.2,6.1,144.1,6.1,144.1,6.1z"/>
		<path class="st1" d="M129.3,4.1c0.1,0,0.2-0.1,0.2-0.1C129.4,4,129.3,4,129.3,4.1z"/>
		<path class="st1" d="M126.8,3.1c0.1,0,0.1,0,0.1,0.1C126.9,3.1,126.9,3.1,126.8,3.1z"/>
		<path class="st1" d="M144.1,6.1l-0.4-0.3C143.7,6,143.9,6,144.1,6.1z"/>
		<path class="st1" d="M163.9,11.7c0.1,0,0.2-0.1,0.3-0.1C164.1,11.6,164,11.6,163.9,11.7C163.9,11.7,163.9,11.7,163.9,11.7z"/>
		<path class="st1" d="M150.7,6.4l0.1,0c0-0.1,0.1-0.1,0.2-0.2L150.7,6.4z"/>
		<path class="st1" d="M155.8,7.1c-0.1,0-0.3,0.5-0.4,0.7c0.1-0.2,0.2-0.3,0.3-0.3C155.7,7.4,155.8,7.3,155.8,7.1z"/>
		<path class="st1" d="M163.4,9.4l0.2,0C163.5,9.3,163.5,9.3,163.4,9.4z"/>
		<path class="st1" d="M147.2,5.8c0-0.1,0-0.2,0-0.2C147.1,5.7,147.1,5.8,147.2,5.8z"/>
		<path class="st1" d="M6.8,12.3C6.8,12.2,6.8,12.2,6.8,12.3C6.7,12.2,6.8,12.3,6.8,12.3z"/>
		<path class="st1" d="M0.3,10.8L0.3,10.8c0-0.1,0-0.3,0-0.4L0.3,10.8z"/>
		<path class="st1" d="M122.2,2C122.2,2,122.2,2,122.2,2C122.4,1.9,122.3,1.9,122.2,2z"/>
		<path class="st1" d="M79,0.9c0.5,0.5-0.8,0.6,0,1.2C78.8,1.8,79.6,1.2,79,0.9z"/>
		<path class="st1" d="M163.8,11.6c-0.1,0-0.1,0-0.2,0C163.7,11.6,163.8,11.6,163.8,11.6z"/>
		<path class="st1" d="M78.9,2.1L78.9,2.1C79,2.1,78.9,2.1,78.9,2.1z"/>
		<path class="st1" d="M111.4,1.6c0,0.1,0,0.2,0.1,0.2C111.4,1.8,111.4,1.7,111.4,1.6z"/>
		<path class="st1" d="M119.3,2.8l-0.2-0.1C119.2,2.8,119.3,2.8,119.3,2.8z"/>
		<path class="st1" d="M107.1,2.1c-0.1,0-0.1-0.1-0.3-0.1c0,0,0,0,0,0.1C106.9,2.1,107,2,107.1,2.1z"/>
		<path class="st1" d="M102.8,1.9c0,0,0,0.1,0.1,0.1c0,0,0.1,0,0.1,0L102.8,1.9z"/>
		<path class="st1" d="M19.5,9.9c-0.1-0.1-0.2-0.3-0.3-0.5C19.3,9.8,18.7,10.1,19.5,9.9z"/>
		<path class="st1" d="M164,11.4c-0.1,0.1-0.1,0.2-0.2,0.2c0,0,0.1,0,0.1,0C164,11.6,164,11.5,164,11.4z"/>
		<path class="st1" d="M106.6,6.5l-0.7-0.1C106.1,6.4,106.4,6.4,106.6,6.5z"/>
		<path class="st1" d="M50.1,6.5l-0.1,0.1C50,6.6,50,6.6,50.1,6.5z"/>
		<path class="st1" d="M103.9,6.3c-0.1-0.2-0.2-0.3-0.4-0.4c0,0-0.1,0.1-0.1,0.1L103.9,6.3z"/>
		<path class="st2" d="M15.1,11.4c0.6-0.1,0.1-0.7,0.2-1.2c0.7-0.3,0.5,0.5,0.8,0.8c0.4-0.3,0.6-1,1-1c0,0.1,0.1,0.1,0.1,0.3
			c0.4-0.6,1.5-0.3,1.9-1.1c0.1,0.1,0.1,0.1,0.1,0.2c-0.2-0.3-0.3-0.7-0.3-1c0.3-0.1,0.4-0.5,0.7-0.1c-0.2,0-0.1,0.2-0.2,0.4
			l0.3-0.2c0.4,0.6-0.4,0.3-0.2,0.8c0.5-0.3,1.1-1,1.6-0.8c0.2,0.6-1,0.4-0.3,0.9l-0.8-0.1c0.8,0.9-0.4,0,0.3,1
			c0.9,0,0.9-0.5,1.9-0.4c0.1-0.4-0.2-0.5-0.1-0.9c1.2-0.8,1.4,1.5,2.2,0.5c0.2-0.5,0.1-1.3,0.9-1l-0.1,0.8c0.9,0,0.3-1.1,1.3-0.8
			c-0.1,0.3-0.7,0.3-0.5,0.4c0.7,0.5,0.3-0.5,0.8-0.5L26.8,9c0.9-0.2,1.9-0.8,2.9-1.1c0,0.2-0.2,0.4,0.1,0.6c1.3-0.5,2.9-0.2,4.2,0
			l0.4-0.6c0.1,0,0.3,0.2,0.1,0.4c0.5,0.2,0-0.4,0.2-0.6C35,7.6,35.2,7.9,35,8.1c0.8-0.6,2.3-1.3,3.4-0.8l-0.2,0.2
			c0.8,0.2,0.6-1.3,1.4-0.8l-0.1,0.1c1.6,0.1,3.3-0.6,4.6,0.2c0.1-0.8,1.6,0.2,1.6-0.9c1,0.5,0.7,0.7,2.1,1c0.3,0,0.4-0.8,0.8-0.9
			l0.1,0.6l0.5-0.7l0.4,0.7l0.4-0.2c-0.2,0-0.4-0.2-0.4-0.4c0.6-0.3,1.6,0.3,1.6,0.6l1.4-0.6c0,0.2-0.2,0.3-0.4,0.5
			c0.7-0.7,0.2,0.6,0.9,0c-0.1-0.1,0-0.4,0-0.5c0.4,0.3,1.2,0.3,1.8,0.1l-0.1,0.4c1.1,0,2.3-0.3,3.5-0.4c-0.5-0.2-0.4-0.9-0.1-1
			l0.2,0.6c0.2-0.4-0.4-0.2,0-0.7c0.5,0,0.4,0.7,0.1,0.9L59,6c0,0.2-0.1,0.3-0.1,0.5c0.2-0.4,1,0.6,1.3-0.1l0,0.2
			C61.5,6.5,62,6.3,63,6.2c0-0.5,0.4-0.4,0.6-0.9c0.7,0.2,1.6,0.6,2.4,0.5c0.6-0.3,0.1-0.5,0.4-0.8c0.1,0.5,0.9,0.4,0.5,0.8
			c1-0.1,1.3-0.1,2.7-0.6c-0.1-0.2-0.3-0.3-0.2-0.5c0.2-0.1,0.6,0.2,0.5,0.4l-0.1,0.1c1.5-0.8,3.5,1.4,4.6,0.3l-0.1,0.1
			c0.4-0.2,0.8-0.4,1.2-0.6c0.6,0.1-0.3,0.4,0.1,0.7c1.3-0.8,2.1,0.1,3.2-0.5c0.9,1.5,3-0.1,4.2,0.8L83,5.7c0.3-0.3,0.4,0.2,0.6,0.3
			c0-0.3-0.3-0.3-0.1-0.5c2.5-0.4,5.2,0.5,7.7,0.9c0.9,0.1,0.6-1.8,1.7-0.9l-0.4,0.6c1.9-0.7,3.9,0.1,5.7-0.5
			c-0.1,0.1-0.1,0.3-0.3,0.3c0.4,0.5,1.4,0.1,1.5-0.3c0.3,0,0,0.4,0.2,0.5c0.4,0.3,1-0.6,1.2-0.1c0,0.1-0.1,0.1-0.2,0.2
			c0.3-0.2,1.2,0.1,1-0.5c0.7,0.3,1.3-0.2,1.9,0.1c0.4-0.6,1.2,0.4,1.3-0.5c-0.1,0.9,1.2,0.8,1.6,0.4c-0.2,0.3,0.4,0.3,0.2,0.7
			c0.5,0,1-0.1,0.9-0.6c0.8,1.1,1.9-0.7,2.3,0.6c1.5-0.4,2.9-0.6,4.3-0.8c-0.1,0.9-1.5,0-1.5,0.9c1.3-0.3,2.1-1,3.4-0.7
			c0.3,0.1-0.2,0.4-0.4,0.5c1.3-0.3,2.4,0.2,3.6-0.2c0,0.1-0.1,0.2-0.3,0.2c0.2,0,0.5,0.2,0.5-0.2l-0.2,0.1c-0.3-0.6,1-1.1,1.1-1.4
			c-0.5,1.1,1.1,0.4,0.3,1.8c0.2-0.1,0.4-0.2,0.4-0.5c0.2,0.1,0.3,0.3,0,0.5c0.8-0.1,0.6-0.6,1.3-0.5c0,0.2-0.2,0.3-0.3,0.5
			c0.4-0.3,0.8-0.7,1.4-0.5c-0.1,0.1,0,0.3-0.2,0.3c1,0,1.9-0.8,3-0.4c-0.5,0.8,0.3,0.3,0.3,1l0.7-0.2l-0.2-0.4
			c0.5,0.1,1.1-0.4,1.5-0.1l-0.4,0.3l1,0l-0.5-0.3c0.6-0.3,0.1-0.9,0.8-0.7c-0.2,0.1,0.5,0.1,0.8,0.5c0.3-0.2,0.6-0.4,1-0.2
			c0.1,0.2-0.2,0.8-0.2,1c0.4-0.6,1.3,0,1.7-0.7c-0.1,0.1-0.2,0.5-0.2,0.6l0.3-0.5c0.2,0.2,0.2,0.3,0.2,0.6c0.7,0.2-0.1-0.9,0.7-0.5
			c-0.1,0-0.1,0.1-0.2,0.2c0.9,0.3,1.8-0.1,2.6,0.2c0.1,0.8-0.8,0.1-0.6,0.7c1.2,0,2.6-0.6,3.7-0.2l-0.2-0.1c0.4-1,0.8,0.6,1.4,0.2
			c-0.2,0.1-0.3,0.5-0.2,0.4c0.8,0.3,1.7,0,2.9-0.2L143.1,8c0.4,0.3,1.2,0.3,1.7,0.5c0.2-0.2,0.5-0.2,0.4-0.6c1.2,1.7,3.1-0.4,4.2,1
			c-0.2,0-0.4,0.2-0.3,0.2l1.2-0.1c0-0.5-0.1-0.3-0.3-0.7c0.2-0.2,0.6-0.4,0.9-0.4c-0.6,0.2-0.2,0.7,0,1c0-0.1,0.1-0.3,0.1-0.4
			c0.4,0.9,0.3-0.9,1-0.2l-0.1,0.2c0.3-0.1,0.7-0.3,1-0.2c0,0.5-0.4,0.2-0.5,0.6c0.5,0,1.2-0.8,1.5-0.2c-0.2,0.1-0.5,0.1-0.8,0.2
			c0.3,0.7,0.4,0.5,0.7,0.7l0,0l0.7,0.4l-0.2-0.2c0.9-1.2,1.2,0,2.3-0.8c-1,0.7-0.2,0.5-0.5,1c0.2,0.2,0.4,0.4,0.3,0.6
			c0.5-0.4,0.5,0.5,1.2-0.1c0,0.2,0.4,0.1,0.2,0.5c0.5-0.1,0-0.3,0.1-0.6c0.9-0.5,1.5,1.1,2.8,0.4c1-0.2,1.4-0.8,2.3-1
			c0.2,0.3-0.4,0.6-0.4,0.6c0.4,0.4,0.8,0.4,1.3,0.2c-0.1,0.1-0.1,0.3,0,0.5c0.4,0,0.4-0.6,0.8-0.3c-0.1,0.2-0.3,0.5-0.6,0.7
			c0.5-0.1,1-0.4,1.5-0.5c0,0.3-0.4,0.5-0.6,0.6c0.5-0.1,1.3-0.1,1.6-0.6l-0.3-0.2c0.2,0,0,0.5-0.2,0.5c-0.5,0.3-0.5-0.3-0.5-0.5
			l0.3-0.1c0-1.1-1.3,0-1.9-0.2l0.5-0.8l-0.8,0.6c-0.1-0.2,0-0.7,0.3-0.8c-0.3-0.5-0.5,0.2-0.7-0.3c0-0.1,0-0.1,0-0.1L163,9.6
			c0.1-0.2,0.1-0.6,0.3-0.4c-0.7-0.6-1.4,0.4-1.6-0.3l0-0.1c-1.2,0.1-0.3,0.6-1.3,1.1l-0.2-1.5L160.1,9c-0.1,0-0.3-0.1-0.2-0.4
			c-0.5,0.3,0,0.3-0.3,0.6c-0.4-0.6-1.5,0-1.4-0.9c-0.3,0.4,0.4,0.4-0.2,0.6c0.1-1-0.7,0.1-1.1-0.5c0.3-0.5,0.7-0.1,0.3-0.7
			c-0.5,0.8-0.9-0.4-1.4-0.3c-0.2,0.7-1,0.1-1.7,0.3c0.1-0.2-1.2-0.6-1.8-1l0.1-0.1c-0.3,0.7-0.9,0.5-1.5,0.6
			c0.1-0.4,0.2-0.6,0.6-0.7l-0.5-0.1c-0.2,0.2-0.3,0.3-0.7,0.4l0.2-0.5c-0.6,0-1.4,0.5-2.1,0c-0.1,0.5,0.3,1.5-0.6,1.7
			c0-0.3,0.1-0.7,0.3-0.8c-0.1,0-0.3,0.2-0.4,0.1l0.4-0.4c-0.3-0.2-0.3,0.4-0.5,0.3c0.1-0.4-0.1-0.3,0-0.6c0.1,0,0.2,0.2,0.4,0.1
			c-0.3-0.1-0.7-0.4-0.7-0.7c0,0.2-0.1,0.5-0.4,0.5c-0.6,0-0.1-0.5-0.4-0.7c-0.2,0.2-0.5-0.1-0.7,0.5c-0.2,0-0.2-0.3-0.2-0.5
			c-0.4,0.2-1.5-0.1-1.3,0.5l0.1,0c0,0,0,0-0.1,0c-1.2,0.4-2.1-0.6-3.2-0.5l0-0.2c-0.7,0.1-1.4,0-1.9,0.3c-0.2,0-0.4-0.4-0.2-0.6
			c-0.5,0.1-0.6,0.3-1.2-0.1c0.5-0.3-0.1-0.3,0.5-0.2c-0.6-0.2-0.7-0.6-1.4-0.1c0.3-0.5-0.4-0.7-0.7-0.6l0.4,0.4
			c-0.3,0-0.6,0-0.9-0.1l0.3-0.6c-1.1-0.9-2.5,1.1-3.3-0.3c-0.4,0.4,0.6,0.4,0.2,0.9c-0.6-0.1-1-1.1-1.2-1.1
			c-0.7-0.4-0.9,0.9-1.7,0.6c0.1,0.2,0.1,0.9-0.6,1c-0.6-0.1-0.6-1-0.2-1.2c0.1,0,0.2,0.1,0.2,0.1c0.2-0.1,0.5-0.1,0.3-0.4l-0.1,0.2
			c-0.3-0.3-1.1-0.3-0.8-0.7c-0.5,0.2-0.2,0.4,0.1,0.5c-0.7-0.4-1.2-0.1-1.9-0.4c0.1,0.1,0.2,0.4,0.1,0.4c-1.1-0.4-0.6,0.4-1.3,0.4
			c-0.4-0.4,0.3-0.8-0.5-0.6c-0.4-0.3,0-0.6,0.2-0.8c-0.8,0.4-1.3-0.4-1.7-0.5l0.4-0.2c-0.2,0.1-0.4,0.1-0.6,0l0.1,0.5
			c-0.2-0.1-0.4-0.1-0.4-0.3c-0.3,0.3,0.1,0.8-0.4,1.2c-0.3-0.3-0.9,0.2-0.9-0.5c0.9,0.3,0-0.6,0.8-0.7c-0.2,0.1-0.3,0-0.5-0.1
			c0-0.1,0-0.1,0.1-0.2c-0.8-0.6-0.5,0.7-1.4,0.6c0.2-0.3-0.1-0.7-0.3-0.6c0.4,0,0.1,0.6-0.3,0.8c-0.5-0.3-0.7,0.1-0.9,0.1l0.3,0.2
			c-0.2,0.3-0.4,0.3-0.8,0.3c0-0.3,0.4-0.2,0.3-0.3c-0.5,0.6-0.9-0.7-1.6-0.3c-0.3-0.3,0.1-0.7-0.2-0.8c-0.8,0.4-0.7-0.5-1.5-0.2
			c0.2,0.5,0.2,0.4-0.4,0.8l1.2-0.3l-0.9,0.6c0.4,0,0.8-0.2,1-0.2c-0.4,0.4-0.4,0.2-0.2,0.6c-0.4-0.7-1,0.4-1.6-0.2l0.1-1.2
			c-0.8-0.6-1.6,0.5-2.7,0.1l0.3,0.2c-0.2,0.5-0.7,0-1.1,0.2c0.1-0.4-0.1-0.5-0.3-0.8c0,0.3-0.8-0.1-1,0.7L110,2
			c-0.9-0.3-1.1,1-2,0.9c0.3-0.4-0.1-0.7,0.5-1c-0.3,0-0.6-0.1-0.6,0.2c-0.1-0.3-0.8,0.5-1.1,0.1c-0.1,0.2-0.2,0.6-0.5,0.5
			c0-0.1,0-0.2,0-0.2c0,0.2-0.5,0.2-0.3,0.7c-0.8-1.2-2.5-0.1-3.2-1.1c-0.7,0.1-1.4,0.2-2,0.2c0-0.1,0-0.2,0.1-0.1
			c-0.8-0.4-0.6,1.1-1.4,0.7C99,2.1,100,2.4,99.7,2.2c-0.1-1.3-1.1,0.1-1.7-0.6l0.1-0.1C97.7,1.1,97,2,96.2,1.9c0,0,0-0.1,0-0.2
			c-0.6,0.6-1.6,0.8-2.3,1c0.2-0.5,0.3-0.3,0.2-0.8c-0.3,0.1,0.1,0.8-0.6,0.9c-0.2-0.3-0.7-0.5-0.7-1.1l0.6,0
			c-0.3-0.7-0.8,0-1.1-0.1l0-0.3c-1,0.1-1,0.8-2,0.8l0.1,0.2c-0.6,0.7-0.5-0.4-1,0.1l-0.2-0.8c-0.4,0.2-1.3,0.7-2,0.9
			C87.7,2,88.5,1.6,89,1.3c-0.4,0-1.2,0-1.4,0.4c0.1-0.1,0.3-0.3,0.5-0.1c-0.5,0.6-1,0.9-1.8,0.9C86.4,1,84.4,2.1,83.8,1
			c-1.3,0.6-2.6-0.2-4.1-0.1c0.6,1.2-0.4,0-0.3,1.2c-0.3,0.1-0.5,0.1-0.5,0l-1.1-0.7c-0.3-0.3,0.3-0.3,0.3-0.5
			c-0.8-0.1-0.3-0.5-0.9-0.8c0.1,0.4-0.3,0.6-0.7,0.5L77.2,1c-1,0.6-0.9-1-2-0.4l0.3-0.4c-0.6,0.2-2.1,0-2.6,1
			c-0.1-0.1-0.2-0.5,0-0.5c-1.3-0.1-2.9,1.1-4,0.6L69.1,1c-0.2,0.1-0.4,0.6-0.7,0.3c0-0.1,0.1-0.3,0-0.3c-0.1,0.1-0.6,0.5-1,0.4
			L67.6,1c-1.3-0.3-1.9,0.9-3,1.1c0-0.9-1.1-1.1-1.6-1.2l0-0.1c-1.5-0.1-2.5,0.8-3.9,1.2c-0.9-0.9-3-0.2-4.4-0.7
			c0.2,0.1,0,0.7-0.2,0.8c-0.3-0.1-0.9,0.7-0.9-0.1l0.1,0c-0.3-0.8-1-0.5-1.5-0.5l0,1c-1.5-1.4-3.5,0.8-4.4-0.5
			c-0.3,0.3-0.7,0.3-1,0.6l0-0.5C45.9,2,45.4,2,44.3,2.2l0.2-0.4c-0.6,0-0.6,1.7-1.2,1.7L43,2.7c-1.1,0.1-2.3-0.5-3.3,0.3
			c0-0.1,0-0.4,0.2-0.4c-0.5,0-2.1-0.4-1.8,0.7c-0.1-0.7-1.2,0-1.7,0.4V3.2C36,4,36,4.2,35.3,4.4c-0.2,0-0.2-0.4,0-0.3
			c-0.6-0.2-0.3,0.6-1.1,0.3l0.2-0.4c-0.6,0-0.5,0.2-0.8,0.6c-0.3,0.3-1.1,0-1.3-0.5c0,0.3-0.3,0.7-0.6,0.6c-0.1-0.2,0-0.3,0.1-0.4
			c-1-0.3-1.3,0.8-2.1,0.3c0-0.2-0.1-0.3-0.2-0.3c0.8-0.1,1.4-0.1,1.3-0.1c-0.1-0.5-0.7-0.5-0.4-1.3c-0.4,0.4-1.1,1.3-1.8,1.2
			c0,0-0.1-0.1-0.1-0.2l0-0.1c-0.1,0-0.3,0-0.4,0.1c-0.2-0.1-0.3-0.1-0.5-0.1c-0.1-0.4-0.8-0.1-1.1-0.1C27,4.6,26.6,4.6,27.1,5
			c-0.1,0,0-0.1,0.2-0.1c0,0,0.1,0,0.1-0.1l0,0c0.2,0,0.5-0.1,0.8-0.1C28,5,27.8,5.3,27.4,5c-0.1,0.4-0.2,0.7-0.3,0.9
			c-0.6-0.7-1.5-1-1.7-1.5c-0.9,0.4-2.2,0.5-2.5,1.6c-0.2,0.2-0.4-0.3-0.5-0.4c0.1-0.1,0.3-0.1,0.4-0.3c-0.5,0.3-1.5,0.3-1.5,1
			c-0.7-0.2,0.2-0.7-0.7-0.5l0.1-0.2c-2.1-0.9-2.5,2.3-4.8,1.1C16,6.9,16.1,6.9,16.2,7c-2.4-0.3-4.5,1.3-7,0.7
			C8.5,7.6,8.5,8.1,8.3,8.5L8,7.9L7.5,8.7c-0.8,0.7-2-1.1-2.9,0l0.3,0.4c-0.4,0-1.3,0.5-1.3,0c0,0.1,0,0.4-0.2,0.3L3.1,9.1L2.2,9.8
			c-0.9,0-0.3-1.2-1.5-1C0.4,9-0.2,10,0.1,10.1c0.2,0,0.5,0.1,0.6,0.4l-0.3,0.2c0.2,0.9,0.3,1.9,1.4,2.3c0.1-0.2,0.3-0.5,0.5-0.7
			l0.4,0.4l-0.5,0.1c0.5,0.3,0.5-0.1,0.7-0.4c0.1,0.2,0.3,0.4,0.4,0.4l0.4-1c0.2,0.3-0.1,0.7,0.4,0.8c0.2-0.5-0.5-0.7-0.1-1.1
			C4.3,12,4.3,12.4,4.6,12c0.1,0.2,0.1,0.4,0,0.5c0.2-0.3,0.9-0.3,0.9-0.8c0.5,0.4,1.1-0.3,1.3,0.5c0-0.2,0.4-0.8,0.7-0.9
			c-0.3,1.1,1.2-0.2,1.3,0.9c0.2-1,1.4-0.7,2-1.3c0,0.1-0.1,0.2-0.1,0.2c0.4,0,0.6,0.3,0.9,0.4c-0.1-0.8,0.5-1,0.7-1.6
			c0.7,0.6-0.1,0.9,0.3,1.6c-0.2-0.6,0.7-0.8,0.4-1.2c0.5,0.4,0.4,0.2,0.8,0.7c-0.2-0.9,0.3-0.2,0.5-0.9c0.7,0.4,0.4,0.9,0.9,0.5
			C15.5,11,15.1,11.4,15.1,11.4z M29.7,7.7C29.7,7.7,29.7,7.7,29.7,7.7c-0.1,0-0.2,0.1-0.3,0.1C29.4,7.8,29.5,7.7,29.7,7.7z
			 M30.9,7.5c-0.2,0-0.4,0-0.6,0c-0.1-0.2-0.1-0.4,0.1-0.4C30.4,7.3,30.7,7.4,30.9,7.5z M27.5,4.1c0.2-0.1,0.3,0,0.3,0.1
			c-0.1,0-0.2,0.1-0.3,0.1c0,0,0,0,0,0.1C27.5,4.3,27.5,4.2,27.5,4.1z"/>
		<path class="st1" d="M27.3,4.9C27.3,4.9,27.3,4.9,27.3,4.9c0,0.1,0,0.1,0.1,0.2c0-0.1,0-0.1,0-0.2C27.4,4.8,27.3,4.8,27.3,4.9z"/>
		<path class="st1" d="M144.3,6.2L144.3,6.2C144.2,6.2,144.3,6.2,144.3,6.2C144.3,6.2,144.3,6.2,144.3,6.2z"/>
		<path class="st1" d="M48.7,6.9l0-0.1l-0.1,0.1L48.7,6.9z"/>
		<path class="st1" d="M150.9,9c0,0,0,0.1,0.1,0.1C150.9,9.1,150.9,9,150.9,9z"/>
		<path class="st1" d="M153.8,9.6l0.4,0.3C154,9.7,153.9,9.6,153.8,9.6z"/>
		<path class="st1" d="M156.1,10.2c0-0.1,0.1-0.2,0.1-0.2L156.1,10.2z"/>
		<path class="st1" d="M119.1,6.5C119,6.5,119,6.5,119.1,6.5C118.8,6.6,118.9,6.6,119.1,6.5z"/>
		<path class="st1" d="M130.3,6.3c-0.1,0.1-0.3,0.2-0.4,0.2C130.1,6.5,130.2,6.6,130.3,6.3z"/>
		<path class="st1" d="M106.7,6.5L106.7,6.5L106.7,6.5z"/>
		<path class="st1" d="M129.4,6.4c0.2,0.1,0.3,0.1,0.5,0.1C129.7,6.4,129.5,6.4,129.4,6.4z"/>
		<path class="st1" d="M165.9,12.1L165.9,12.1c0.1,0,0.1,0,0.1,0L165.9,12.1z"/>
		<path class="st1" d="M166.1,12.1l0.1,0C166.2,12,166.1,12,166.1,12.1z"/>
		<path class="st1" d="M166.5,11.9l-0.3,0.1C166.3,12.1,166.4,12.1,166.5,11.9z"/>
		<path class="st1" d="M163,11.4l-0.1,0.2C162.9,11.5,162.9,11.5,163,11.4z"/>
		<path class="st1" d="M162,11.3c0.2,0.1,0.4,0.5,0.8,0.4l0.1-0.1C162.7,11.8,162.3,11,162,11.3z"/>
		<path class="st1" d="M158.8,8.2l0.7,0.3c-0.1-0.2-0.2-0.5,0.2-0.5C158.9,7.2,159.8,8.5,158.8,8.2z"/>
		<path class="st1" d="M156.5,7.5c0.4,0,0.1-0.3,0.1-0.4C156.3,7.2,156.2,7.3,156.5,7.5z"/>
		<path class="st1" d="M138.8,5.1l0.1-0.5C138.6,4.6,138.9,4.8,138.8,5.1z"/>
		<path class="st1" d="M135,7.2l0.3,0.4l0.2-0.4L135,7.2z"/>
		<path class="st1" d="M133.6,3.5l0.1-0.1l-0.6,0.1L133.6,3.5z"/>
		<path class="st1" d="M103.6,1.4l0.1,0.6C103.9,2,103.9,1.3,103.6,1.4z"/>
		<path class="st1" d="M90.5,1.7c-0.1-0.3-0.5-0.5-0.7-0.2C90.1,1.6,90.4,1.8,90.5,1.7z"/>
		<path class="st1" d="M51.5,1.8l0.2-0.2l-0.5,0.2L51.5,1.8z"/>
	</g>
</g>
</svg>
