<?xml version="1.0" standalone="no"?>
<!DOCTYPE svg PUBLIC "-//W3C//DTD SVG 20010904//EN"
 "http://www.w3.org/TR/2001/REC-SVG-20010904/DTD/svg10.dtd">
<svg version="1.0" xmlns="http://www.w3.org/2000/svg"
 width="100.000000pt" height="100.000000pt" viewBox="0 0 100.000000 100.000000"
 preserveAspectRatio="xMidYMid meet">

<g transform="translate(0.000000,100.000000) scale(0.100000,-0.100000)"
fill="#000000" stroke="none">
<path d="M407 990 c-99 -25 -183 -94 -229 -188 l-33 -66 -3 -288 c-4 -327 -3
-329 75 -378 77 -49 143 -64 283 -64 140 0 206 15 283 64 78 49 79 51 75 378
l-3 288 -33 66 c-58 119 -165 187 -302 194 -41 2 -92 -1 -113 -6z m237 -64
c60 -29 138 -108 154 -156 6 -16 9 -30 8 -30 -2 0 -21 7 -42 16 -132 55 -396
55 -528 0 -21 -9 -40 -16 -42 -16 -12 0 25 67 57 104 74 84 154 118 266 112
52 -2 86 -10 127 -30z m54 -190 c121 -33 152 -81 78 -122 -58 -33 -149 -49
-276 -49 -127 0 -218 16 -276 49 -90 50 -33 103 146 137 63 11 265 3 328 -15z
m-479 -231 c19 -83 61 -105 127 -64 l34 21 10 -27 c5 -14 10 -54 10 -88 0
-114 29 -167 91 -167 18 0 35 9 48 26 18 23 21 41 21 129 0 78 4 105 15 115
20 17 31 6 39 -39 10 -65 69 -91 116 -53 18 14 26 37 36 101 7 46 21 95 31
110 18 25 18 21 21 -189 2 -196 1 -217 -16 -240 -95 -128 -501 -131 -601 -4
-20 25 -21 38 -21 243 1 179 3 213 14 199 7 -10 18 -42 25 -73z m281 21 c89 0
162 5 189 13 23 7 44 11 46 9 3 -4 -13 -127 -21 -150 -6 -21 -37 -24 -51 -5
-6 6 -13 27 -17 46 -3 19 -11 40 -17 48 -18 21 -58 15 -84 -12 -23 -22 -25
-31 -25 -124 0 -112 -4 -131 -30 -131 -32 0 -43 29 -50 130 -8 110 -25 150
-64 150 -12 0 -31 -9 -41 -20 -35 -39 -68 -22 -79 41 l-6 36 52 -15 c36 -10
100 -15 198 -16z"/>
</g>
</svg>
