<?xml version="1.0" standalone="no"?>
<!DOCTYPE svg PUBLIC "-//W3C//DTD SVG 20010904//EN"
 "http://www.w3.org/TR/2001/REC-SVG-20010904/DTD/svg10.dtd">
<svg version="1.0" xmlns="http://www.w3.org/2000/svg"
 width="96.000000pt" height="96.000000pt" viewBox="0 0 96.000000 96.000000"
 preserveAspectRatio="xMidYMid meet">

<g transform="translate(0.000000,96.000000) scale(0.100000,-0.100000)"
fill="#000000" stroke="none">
<path d="M325 907 c-95 -35 -140 -57 -140 -67 0 -8 26 -28 57 -45 l58 -30 0
-65 c0 -79 23 -133 73 -177 64 -56 150 -56 214 0 49 43 73 98 73 173 0 53 3
64 23 77 31 21 10 43 -30 30 -21 -7 -29 -17 -31 -40 l-3 -31 -107 5 c-59 2
-113 0 -121 -5 -28 -20 1 -32 77 -32 118 0 152 -8 152 -35 0 -38 -43 -107 -80
-126 -44 -24 -76 -24 -120 0 -53 28 -80 88 -80 177 l0 74 -41 20 c-23 12 -38
24 -34 28 3 3 53 23 111 43 l105 37 129 -46 129 -46 3 -100 c2 -82 6 -101 18
-101 12 0 15 19 15 115 l0 115 -140 52 c-77 28 -147 51 -155 51 -8 0 -78 -23
-155 -51z"/>
<path d="M359 421 c-101 -32 -187 -108 -238 -208 -28 -55 -27 -69 8 -104 l29
-29 322 0 322 0 29 29 c35 35 36 49 8 104 -91 180 -293 268 -480 208z m275
-55 c95 -46 200 -182 176 -226 -10 -19 -22 -20 -330 -20 -308 0 -320 1 -330
20 -20 38 65 161 148 212 89 55 239 61 336 14z"/>
</g>
</svg>
